<?xml version="1.0" encoding="UTF-8"?> <svg xmlns="http://www.w3.org/2000/svg" xmlns:xlink="http://www.w3.org/1999/xlink" width="91.552" height="32.944" viewBox="0 0 91.552 32.944"><defs><clipPath id="a"><rect width="91.552" height="32.944" fill="none"></rect></clipPath></defs><g transform="translate(-666.359 -33)"><g transform="translate(666.359 33)"><g clip-path="url(#a)"><path d="M303.722,45.991c-1.414-.261-3.27-.4-3.873-1.256-.906-1.287.226-3.159,3.192-2.984a3.013,3.013,0,0,1,3.088,3.036H310a5.874,5.874,0,0,0-1.518-4.082,8.96,8.96,0,0,0-7.535-2.041c-1.885.261-4.4,1.359-5.235,3.82a4.933,4.933,0,0,0,1.413,5.5c1.78,1.361,5.12,1.769,6.491,2.043,1.656.331,2.887.552,2.682,2.315-.215,1.852-3.086,2.379-4.985,1.766a3.35,3.35,0,0,1-2.2-2.983h-4.081a6.626,6.626,0,0,0,2.223,4.714,8.664,8.664,0,0,0,5.72,1.8c2.86,0,5.226-.737,6.659-2.854a5.934,5.934,0,0,0,.261-5.966c-1.151-1.989-3.768-2.408-6.175-2.827" transform="translate(-237.886 -31.08)" fill="#fff"></path><path d="M208.508,40.938a8.39,8.39,0,0,0-7.536-2.513c-5.559.884-6.919,6.151-7.171,7.852A9.573,9.573,0,0,0,199.874,56.9a9.111,9.111,0,0,0,8.426-1.2,8.288,8.288,0,0,0,2.931-4.869h-4.658a3.7,3.7,0,0,1-1.361,2.094,4.307,4.307,0,0,1-4.973-.21c-1.413-1.046-1.936-2.773-1.936-5.234,0-3.407,1.566-5.425,4.271-5.425a3.793,3.793,0,0,1,3.842,3.855h-6.6v3.3h11.41a12.072,12.072,0,0,0-2.722-8.269" transform="translate(-156.177 -30.894)" fill="#fff"></path><path d="M401.7,52.346V46.693a28.215,28.215,0,0,0-.366-4.292,5.03,5.03,0,0,0-2.671-3.3,9.448,9.448,0,0,0-4.828-.836c-3.478,0-7.222,1.21-7.382,6.228h4.186c0-1.816,1.258-2.888,3.184-2.888,1.885,0,3.483,1.015,3.115,2.68s-3.441,1.727-5.406,1.989c-2.278.3-5.339,1.361-6.072,4.554a5.248,5.248,0,0,0,1.884,5.076,7.022,7.022,0,0,0,4.554,1.414,8.326,8.326,0,0,0,5.458-2.042,5.78,5.78,0,0,0,.523,1.518h4.4a10.767,10.767,0,0,1-.576-4.449m-4.711-.68c-.38,1.093-1.406,1.9-3.349,2.151-2.563.337-4.315-1.255-3.206-3.3s5.212-1.328,6.765-2.826a20.512,20.512,0,0,1-.21,3.979" transform="translate(-310.724 -30.854)" fill="#fff"></path><path d="M22.481,26.972c-7.418-2.561-8.79-9.423-6.941-14.227a8.628,8.628,0,0,1,12.8-3.827c4.489,3.22,4.012,9.4,4.012,9.4H20.844v-3.3h6.678a3.3,3.3,0,0,0-.925-2.509,4.014,4.014,0,0,0-4.988-.817c-1.721.99-2.9,4.521-1.98,7.627s3.742,4.339,6.455,4.339c3.93,0,6.854-2.716,6.86-7.163A16.468,16.468,0,1,0,29.022,27.14a10.523,10.523,0,0,1-6.541-.168M7.9,18.544a1.879,1.879,0,1,1,1.879-1.879A1.879,1.879,0,0,1,7.9,18.544" transform="translate(0 0)" fill="#fff"></path></g></g></g></svg> 