<?xml version="1.0" encoding="utf-8"?>
<!-- Generator: Adobe Illustrator 23.0.0, SVG Export Plug-In . SVG Version: 6.00 Build 0)  -->
<svg version="1.1" id="Capa_1" xmlns="http://www.w3.org/2000/svg" xmlns:xlink="http://www.w3.org/1999/xlink" x="0px" y="0px"
	 viewBox="0 0 566.93 182.83" style="enable-background:new 0 0 566.93 182.83;" xml:space="preserve">
<style type="text/css">
	.st0{fill:none;stroke:#FFFFFF;stroke-width:0.25;stroke-miterlimit:10;}
	.st1{fill:#919191;}
	.st2{fill:#000000;}
</style>
<rect x="-0.04" y="0" class="st0" width="567.01" height="182.83"/>
<g>
	<path class="st1" d="M47.24,75.05c-0.57-0.64-0.86-1.44-0.86-2.4c0-1.21,0.42-2.24,1.25-3.07c0.83-0.83,1.82-1.25,2.98-1.25
		c0.96,0,1.74,0.32,2.35,0.96c0.61,0.64,0.91,1.44,0.91,2.4c0,1.21-0.43,2.24-1.3,3.07c-0.86,0.83-1.87,1.25-3.02,1.25
		C48.58,76.01,47.82,75.69,47.24,75.05z"/>
	<path class="st1" d="M71.82,76.15c4.29-5.22,9.76-7.82,16.42-7.82c3.97,0,7.23,1.03,9.79,3.07c2.56,2.05,3.84,4.77,3.84,8.16
		c0,3.13-1.02,5.74-3.07,7.82c-2.05,2.08-4.66,3.47-7.82,4.18c-3.17,0.71-6.64,1.2-10.41,1.49c-3.78,0.29-7.39,0.21-10.85-0.24
		c-0.51,5.19,0.39,9.46,2.69,12.82c2.3,3.36,5.6,5.04,9.89,5.04c4.22,0,8.35-1.47,12.39-4.42c0.89-0.64,1.6-0.51,2.11,0.38
		l0.67,1.05c0.39,0.64,0.29,1.22-0.29,1.73c-4.68,3.52-9.79,5.28-15.36,5.28c-5.05,0-9.06-1.86-12-5.57
		c-2.95-3.71-4.42-8.39-4.42-14.02C65.38,87.69,67.53,81.37,71.82,76.15z M97.64,79.85c0-2.24-0.93-4.03-2.78-5.38
		c-1.86-1.34-4.23-2.02-7.11-2.02c-4.23,0-8.02,1.6-11.38,4.8c-3.36,3.2-5.39,7.1-6.09,11.71C88.52,90.38,97.64,87.34,97.64,79.85z"
		/>
	<path class="st1" d="M146.13,112.2c-0.07,0.38-0.26,0.72-0.58,1.01c-0.32,0.29-0.64,0.43-0.96,0.43h-0.87
		c-0.89,0-1.31-0.51-1.25-1.54l0.19-3.84c-1.09,1.28-2.95,2.67-5.57,4.18c-2.62,1.5-5.57,2.26-8.83,2.26
		c-4.54,0-8.24-1.92-11.09-5.76c-2.85-3.84-4.27-8.71-4.27-14.59c0-7.11,2.19-13.22,6.57-18.34c4.39-5.12,9.65-7.68,15.79-7.68
		c3.14,0,5.76,0.61,7.88,1.82c2.11,1.22,3.55,2.34,4.32,3.36l0.96-2.98c0.25-0.83,0.7-1.25,1.34-1.25h0.96
		c0.32,0,0.59,0.14,0.81,0.43c0.23,0.29,0.31,0.63,0.24,1.01L146.13,112.2z M146.51,78.21c-0.32-0.51-0.79-1.1-1.39-1.78
		c-0.61-0.67-1.86-1.5-3.75-2.5c-1.89-0.99-3.95-1.49-6.19-1.49c-5.06,0-9.33,2.16-12.82,6.48c-3.49,4.32-5.23,9.46-5.23,15.41
		c0,4.42,1.11,8.24,3.31,11.47s5.07,4.85,8.59,4.85c2.43,0,4.83-0.67,7.2-2.02c2.37-1.34,4.1-2.59,5.18-3.74
		c1.09-1.15,1.7-1.92,1.82-2.3L146.51,78.21z"/>
	<path class="st1" d="M164.46,112.2l5.86-41.48c0.13-0.96,0.57-1.44,1.34-1.44h1.05c0.83,0,1.22,0.42,1.15,1.25l-0.29,4.22
		c0.96-1.41,2.66-2.83,5.09-4.27c2.43-1.44,5.25-2.16,8.45-2.16c2.24,0,4.23,0.38,5.95,1.15c1.02,0.51,1.34,1.18,0.96,2.02
		l-0.86,1.73c-0.39,0.9-1.03,1.06-1.92,0.48c-1.66-0.83-3.49-1.25-5.47-1.25c-2.69,0-5.14,0.83-7.34,2.5
		c-2.21,1.66-3.92,3.42-5.14,5.28l-4.61,31.97c-0.13,0.96-0.61,1.44-1.44,1.44h-1.73C164.68,113.64,164.33,113.16,164.46,112.2z"/>
	<path class="st1" d="M203.82,102.22l4.22-28.9h-5.18c-0.83,0-1.15-0.48-0.96-1.44l0.29-1.44c0.19-0.77,0.64-1.15,1.34-1.15h5.09
		l1.63-12.1c0.13-0.96,0.67-1.44,1.63-1.44l1.25-0.1c0.45,0,0.8,0.14,1.05,0.43c0.26,0.29,0.32,0.62,0.19,1.01l-1.63,12.19h13.73
		c0.9,0,1.28,0.48,1.15,1.44l-0.19,1.15c-0.13,0.96-0.64,1.44-1.54,1.44h-13.73l-4.13,28.9c-0.38,3.01-0.32,5.17,0.19,6.48
		c0.51,1.31,1.73,1.97,3.65,1.97c2.43,0,5.5-1.12,9.22-3.36c0.64-0.45,1.18-0.32,1.63,0.38l0.77,1.15c0.45,0.71,0.29,1.31-0.48,1.82
		c-4.29,2.69-8.25,4.03-11.9,4.03C205.04,114.7,202.6,110.54,203.82,102.22z"/>
	<path class="st1" d="M235.41,112.2l9.02-64.42c0.13-0.9,0.54-1.34,1.25-1.34h1.92c0.32,0,0.63,0.14,0.91,0.43
		c0.29,0.29,0.4,0.59,0.34,0.91l-3.94,27.27c0.7-0.77,1.57-1.58,2.59-2.45c1.02-0.87,2.69-1.79,4.99-2.79
		c2.3-0.99,4.67-1.49,7.1-1.49c9.73,0,13.64,6.59,11.72,19.78l-3.36,24.1c-0.13,0.96-0.64,1.44-1.54,1.44h-1.44
		c-0.96,0-1.38-0.48-1.25-1.44l3.36-24.1c0.7-5.44,0.38-9.41-0.96-11.9c-1.34-2.5-3.81-3.74-7.39-3.74c-2.5,0-4.96,0.66-7.39,1.97
		c-2.43,1.31-4.14,2.46-5.14,3.46c-0.99,0.99-1.68,1.78-2.07,2.35l-4.51,31.97c-0.13,0.96-0.64,1.44-1.54,1.44h-1.63
		C235.63,113.64,235.28,113.16,235.41,112.2z"/>
	<path class="st2" d="M292.91,134.29c-0.19,1.47-1.09,2.21-2.69,2.21h-7.97c-0.45,0-0.83-0.19-1.15-0.58
		c-0.32-0.38-0.45-0.8-0.38-1.25l8.73-63.27c0.07-0.58,0.3-1.07,0.72-1.49c0.42-0.42,0.88-0.62,1.39-0.62h3.74
		c0.9,0,1.44,0.45,1.63,1.34l0.77,3.55c3.78-3.9,8.51-5.86,14.21-5.86c4.99,0,8.9,1.89,11.72,5.66c2.82,3.78,4.22,8.48,4.22,14.11
		c0,7.49-2.22,13.8-6.67,18.91c-4.45,5.12-9.87,7.68-16.27,7.68c-3.71,0-6.72-0.83-9.02-2.5L292.91,134.29z M304.82,103.47
		c3.07,0,5.7-1.44,7.87-4.32c2.18-2.88,3.27-6.4,3.27-10.56c0-2.75-0.64-4.96-1.92-6.63c-1.28-1.66-3.17-2.5-5.66-2.5
		c-2.05,0-3.89,0.61-5.52,1.82c-1.63,1.22-2.8,2.43-3.5,3.65l-1.92,15.75C299.35,102.54,301.81,103.47,304.82,103.47z"/>
	<path class="st2" d="M339.76,109.47c-1.79-3.49-2.24-8.34-1.34-14.55l3.45-23.52c0.2-1.41,0.9-2.11,2.11-2.11h8.26
		c0.51,0,0.93,0.19,1.25,0.58c0.32,0.38,0.45,0.9,0.39,1.54l-3.46,23.91c-0.45,2.88-0.34,4.96,0.34,6.24
		c0.67,1.28,1.97,1.92,3.89,1.92c1.6,0,3.04-0.51,4.32-1.54c1.28-1.02,2.14-2.05,2.59-3.07l0.67-1.44l3.65-26.02
		c0.25-1.41,1.05-2.11,2.4-2.11h8.07c0.51,0,0.93,0.21,1.25,0.62c0.32,0.42,0.45,0.91,0.39,1.49l-5.57,40.13
		c-0.06,0.58-0.32,1.07-0.77,1.49c-0.45,0.42-0.93,0.63-1.44,0.63h-3.65c-0.89,0-1.47-0.54-1.73-1.63l-0.77-3.74
		c-1.21,1.41-2.14,2.42-2.79,3.03c-0.64,0.61-1.92,1.33-3.84,2.16c-1.92,0.83-4.1,1.25-6.53,1.25
		C345.27,114.7,341.55,112.96,339.76,109.47z"/>
	<path class="st2" d="M395.35,48.55c0.07-0.58,0.32-1.07,0.77-1.49s0.89-0.62,1.34-0.62h8.26c0.51,0,0.94,0.21,1.3,0.62
		c0.35,0.42,0.5,0.91,0.43,1.49l-8.93,62.99c-0.06,0.58-0.32,1.07-0.77,1.49c-0.45,0.42-0.93,0.63-1.44,0.63h-8.26
		c-0.51,0-0.93-0.21-1.25-0.63c-0.32-0.42-0.45-0.91-0.38-1.49L395.35,48.55z"/>
	<path class="st2" d="M411.57,110.19c-0.7-0.58-0.77-1.44-0.19-2.59l2.69-5.18c0.26-0.45,0.66-0.74,1.2-0.87
		c0.55-0.13,1.04-0.03,1.49,0.29c2.82,1.66,5.57,2.5,8.26,2.5c3.14,0,4.7-1.12,4.7-3.36c0-1.79-1.98-3.87-5.95-6.24
		c-3.07-1.86-5.36-3.73-6.87-5.62c-1.5-1.89-2.25-4.27-2.25-7.15c0-3.78,1.44-6.99,4.32-9.65c2.88-2.66,6.88-3.98,12-3.98
		c2.56,0,4.99,0.38,7.3,1.15c2.3,0.77,4,1.57,5.09,2.4c1.09,0.83,1.28,1.92,0.58,3.26l-2.59,4.99c-0.57,0.9-1.44,1.09-2.59,0.58
		c-3.39-1.47-6.11-2.21-8.16-2.21c-3.14,0-4.71,1.09-4.71,3.26c0,0.9,0.39,1.73,1.15,2.5c0.77,0.77,2.14,1.66,4.13,2.69
		c6.98,3.65,10.47,8.16,10.47,13.54c0,4.03-1.5,7.41-4.51,10.13c-3.01,2.72-7.07,4.08-12.2,4.08
		C419.99,114.7,415.54,113.2,411.57,110.19z"/>
	<path class="st2" d="M458.66,76.34c4.57-5.35,10.57-8.02,18-8.02c4.29,0,7.81,1.18,10.56,3.55c2.75,2.37,4.13,5.28,4.13,8.74
		c0,3.58-1.47,6.55-4.41,8.88s-6.4,3.94-10.37,4.8c-3.97,0.86-8.38,1.33-13.25,1.39c-0.13,2.43,0.41,4.42,1.63,5.95
		c1.22,1.54,3.11,2.3,5.67,2.3c2.3,0,5.02-1.02,8.16-3.07c1.15-0.9,1.98-0.9,2.5,0l3.65,4.9c0.7,1.03,0.61,1.98-0.29,2.88
		c-4.48,4.03-9.6,6.05-15.36,6.05c-5.44,0-9.71-1.89-12.82-5.67c-3.1-3.78-4.66-8.45-4.66-14.02
		C451.79,87.91,454.08,81.69,458.66,76.34z M475.17,86.04c2.85-0.99,4.27-2.35,4.27-4.08c0-0.96-0.39-1.78-1.15-2.45
		c-0.77-0.67-1.92-1.01-3.46-1.01c-2.18,0-4.29,0.96-6.34,2.88c-2.05,1.92-3.39,3.97-4.04,6.14
		C468.76,87.53,472.33,87.03,475.17,86.04z"/>
	<path class="st2" d="M500.09,101.45c1.79-1.79,3.84-2.69,6.14-2.69c1.92,0,3.54,0.69,4.85,2.06c1.31,1.38,1.97,3.02,1.97,4.94
		c0,2.37-0.91,4.43-2.74,6.19c-1.82,1.76-3.92,2.64-6.29,2.64c-1.86,0-3.42-0.67-4.7-2.02c-1.28-1.34-1.92-2.98-1.92-4.9
		C497.4,105.32,498.29,103.24,500.09,101.45z M505.22,87.05c-0.29-0.32-0.4-0.67-0.34-1.06l-0.1-26.79l1.54-10.94
		c0.07-0.45,0.27-0.87,0.63-1.25c0.35-0.38,0.75-0.58,1.2-0.58h11.04c0.45,0,0.8,0.18,1.05,0.53c0.26,0.35,0.35,0.78,0.29,1.3
		L519,59.01l-7.59,26.98c-0.13,0.38-0.38,0.74-0.77,1.06c-0.38,0.32-0.77,0.48-1.15,0.48h-3.17
		C505.88,87.53,505.51,87.37,505.22,87.05z"/>
</g>
</svg>
